<svg width="75" height="61" fill="none" xmlns="http://www.w3.org/2000/svg"><path fill-rule="evenodd" clip-rule="evenodd" d="M2.1 0C.17 0 0 2.04 0 2.04v15.81c0 2.94 2.9 3 2.9 3h9.01c1.94 0 1.6 1.34 1.6 1.34s-2.47 13-2.73 15.21C10.5 39.6 8.9 41 8.9 41l-3 1.67c-.87.47-.87 2.2-.87 2.2h30.89v-.73c0-1.47-6.47-3.14-9.07-3.4-2.6-.27-2.07-2-2.07-2l1.06-7.81h3L30 23.06h-3l.33-2.74 8.6-.13c5.81-.6 10.02-4.07 10.02-4.07V4.1C41.34.84 33.99 0 33.99 0H2.1ZM60.4 8.02h13.48c.58 0 1.05 1.1 1.05 2.48 0 1.37-.47 2.48-1.05 2.48H60.4c-.62 2.3-2.08 3.9-3.77 3.9h-7.54V4.13h7.55c1.69 0 3.14 1.6 3.76 3.89ZM6.9 61c-1.87 0-1.87-2.05-1.87-2.05v-11h30.89v11.07c0 1.8-2 1.98-2 1.98H6.9ZM36 4.97v-.03a1 1 0 0 0-1-1H5.03a1 1 0 0 0-1 1v.03a1 1 0 0 0 1 1H35a1 1 0 0 0 1-1Z" fill="#fff"/></svg>