<svg width="78" height="62" fill="none" xmlns="http://www.w3.org/2000/svg"><path fill-rule="evenodd" clip-rule="evenodd" d="M0 45.875c0-8.907 7.22-16.126 16.125-16.126 8.906 0 16.126 7.219 16.125 16.126C32.25 54.78 25.03 62 16.125 62 7.22 62 0 54.78 0 45.875Zm10.958 5.167a7.306 7.306 0 0 0 12.474-5.167 7.307 7.307 0 1 0-12.474 5.167Zm49.896-5.168a8.062 8.062 0 1 0 0 16.124 8.062 8.062 0 0 0 0-16.124Zm-5.062 8.062a5.063 5.063 0 1 0 10.126.002 5.063 5.063 0 0 0-10.126-.002Z" fill="#fff"/><path fill-rule="evenodd" clip-rule="evenodd" d="M75.437 31.313c.438 3.312 2.461 18.414 2.461 18.414s.743 3.148-2.898 3.148h-1.955c-.389-6.402-5.69-11.479-12.191-11.479s-11.801 5.077-12.191 11.479H38.499a23.429 23.429 0 0 0 1.064-7c0-12.946-10.494-23.439-23.438-23.439a23.327 23.327 0 0 0-13.079 3.986c-.045-2.959-.042-13.885 2.266-20.255 0 0 1.063-2.542 3.438-3.167S33.5 0 33.5 0s2.314.062 3.126 1.875c.812 1.813 10.562 21.875 10.562 21.875L59 25.128v-5.295h4V14h3v11.946l5.812.679s3.078.547 3.625 4.688Zm-59.312-11.48h6.958V6.167h-6.958v13.666Zm16.958 0h-6.958V6.167h6.958v13.666ZM49 36h4.016v-7H49v7Zm11.016 0H56v-7h4.016v7ZM63 36h4.016v-7H63v7Z" fill="#fff"/></svg>