<svg width="44" height="65" fill="none" xmlns="http://www.w3.org/2000/svg"><path d="M37.91 30.44V41.3s.1 2.73-2.82 2.73c-3.07 0-3.13-2.73-3.13-2.73v-6.42c0-.24-.34-1.9-2.32-1.9-2.62 0-2.67 1.87-2.67 1.87v19.22s.03 1.86-2.46 1.86C22 55.94 22 53.96 22 53.96V40.02s0-2.95-3.8-2.95c-4.06 0-3.97 3.13-3.97 3.13v3.72s-.12 2.95-4.69 2.95-4.63-4.51-4.63-4.51V29.94C3.17 28.98 0 26.67 0 26.67V56s2.99 9 22 9c19.01 0 22-8.7 22-8.7V26.68c-2.94 2.83-6.09 3.77-6.09 3.77Z" fill="#fff"/><path fill-rule="evenodd" clip-rule="evenodd" d="M22 0C1.69 0 0 19.88 0 19.88v3.06C8.44 29.19 22 29 22 29s13.56.19 22-6.06v-3.06S42.31 0 22 0Zm0 25c-11.75 0-14.31-2.38-14.31-2.38C13.94 19.75 22 19.88 22 19.88s8.06-.12 14.31 2.75c0 0-2.56 2.38-14.31 2.38ZM4.31 15.56s8.13-2.94 17.69-2.94 17.69 2.94 17.69 2.94C35.13 2.62 22 3.06 22 3.06S8.87 2.62 4.31 15.56Z" fill="#fff"/></svg>