<svg width="59" height="72" fill="none" xmlns="http://www.w3.org/2000/svg"><path fill-rule="evenodd" clip-rule="evenodd" d="M58.34 21.25a3.01 3.01 0 0 0-2.4-1.18H17.27L14.8 12.8H3.06c-1.66 0-3 1.32-3 2.96a2.98 2.98 0 0 0 3 2.96h7.42l13.5 39.73h25.16c1.66 0 3-1.33 3-2.96a2.98 2.98 0 0 0-3-2.96H28.3l-1.73-5.08H49.7a3 3 0 0 0 2.89-2.14l6.25-21.45c.26-.9.08-1.86-.49-2.6Zm-7.78 9.55h-4.81v-4.81h6.21l-1.4 4.8Zm-17.62-4.81v4.8h6.8V26h-6.8Zm6.8 10.73v4.8h-6.8v-4.8h6.8Zm-12.8-5.92v-4.81h-7.66l1.64 4.8h6.02Zm-4.01 5.92h4.01v4.8h-2.38l-1.63-4.8Zm22.82 0v4.8h1.68l1.4-4.8h-3.08Z" fill="#fff"/><path d="M27.4 71.88c3.2 0 5.79-2.56 5.79-5.7 0-3.15-2.6-5.7-5.78-5.7a5.74 5.74 0 0 0-5.79 5.7c0 3.14 2.6 5.7 5.79 5.7ZM44.84 71.88c3.2 0 5.78-2.56 5.78-5.7 0-3.15-2.58-5.7-5.78-5.7a5.74 5.74 0 0 0-5.78 5.7c0 3.14 2.6 5.7 5.78 5.7ZM29.34 10.55l7.54 5.42a2 2 0 0 0 2.82-.49c.65-.92.43-2.2-.48-2.85l-2.37-1.7 9.43-5.03 4.63 11.85h4.35L49.2 2.28a2 2 0 0 0-2.82-1.06L33.15 8.27 30.12 6.1a2 2 0 0 0-2.74.38L18.9 17.13c-.17.19-.3.4-.4.62h5.1l5.73-7.2Z" fill="#fff"/></svg>