<svg width="78" height="63" fill="none" xmlns="http://www.w3.org/2000/svg"><path d="M25.98 63a7.5 7.5 0 1 0 0-15 7.5 7.5 0 0 0 0 15ZM59.98 63a7.5 7.5 0 1 0 0-15 7.5 7.5 0 0 0 0 15Z" fill="#fff"/><path fill-rule="evenodd" clip-rule="evenodd" d="M11.06 0H64s14 14.81 14 33.69v15.25S77.81 53 74.87 53h-1.7a13.5 13.5 0 0 0-26.52 0h-7.4a13.5 13.5 0 0 0-26.53 0h-2.1s-2.56-.62-2.56-3.81V33.57l14.75-.76s5.49-.6 6.3-3.75L5.44 27.8a3.37 3.37 0 1 1 0-6.75h9.05l8.31-.42s8.18-.61 8.94-3.8l-.2-.05-28.08-1.84a3.47 3.47 0 1 1 0-6.94h4.6V3.12S7.86 0 11.06 0ZM52 8.94v15h15.81l-5.75-15H52Z" fill="#fff"/></svg>